<svg width="133" height="17" viewBox="0 0 133 17" fill="none" xmlns="http://www.w3.org/2000/svg">
<path d="M0.789062 1.28C0.789062 0.96 0.877063 0.704 1.05306 0.511999C1.24506 0.303999 1.51706 0.199999 1.86906 0.199999H3.09306C3.39706 0.199999 3.64506 0.295999 3.83706 0.487999C4.04506 0.663999 4.14906 0.927999 4.14906 1.28V15.92C4.14906 16.224 4.06106 16.48 3.88506 16.688C3.70906 16.896 3.44506 17 3.09306 17H1.86906C1.54906 17 1.28506 16.912 1.07706 16.736C0.885063 16.544 0.789062 16.272 0.789062 15.92V1.28ZM5.3125 1.28C5.3125 0.96 5.4005 0.704 5.5765 0.511999C5.7685 0.303999 6.0405 0.199999 6.3925 0.199999H7.6405C7.9605 0.199999 8.2165 0.295999 8.4085 0.487999C8.6165 0.663999 8.7205 0.927999 8.7205 1.28V3.848C8.7205 4.984 8.9285 5.624 9.3445 5.768C9.6325 5.928 10.1365 6.008 10.8565 6.008H19.3285C20.4645 6.008 21.1045 5.792 21.2485 5.36C21.4085 5.104 21.4885 4.6 21.4885 3.848V1.28C21.4885 0.975999 21.5765 0.719999 21.7525 0.511999C21.9285 0.303999 22.1925 0.199999 22.5445 0.199999H23.7685C24.0885 0.199999 24.3445 0.295999 24.5365 0.487999C24.7445 0.663999 24.8485 0.927999 24.8485 1.28V15.92C24.8485 16.224 24.7525 16.48 24.5605 16.688C24.3845 16.896 24.1205 17 23.7685 17H22.5445C22.2245 17 21.9685 16.912 21.7765 16.736C21.5845 16.56 21.4885 16.288 21.4885 15.92V11.528C21.4885 10.408 21.2725 9.776 20.8405 9.632C20.5845 9.472 20.0805 9.392 19.3285 9.392H10.8565C9.7205 9.392 9.0805 9.608 8.9365 10.04C8.8565 10.168 8.8005 10.36 8.7685 10.616C8.7365 10.856 8.7205 11.16 8.7205 11.528V15.92C8.7205 16.224 8.6245 16.48 8.4325 16.688C8.2565 16.896 7.9925 17 7.6405 17H6.3925C6.0725 17 5.8085 16.912 5.6005 16.736C5.4085 16.544 5.3125 16.272 5.3125 15.92V1.28ZM26.0558 14.672C26.0558 14.352 26.1438 14.096 26.3198 13.904C26.5118 13.696 26.7838 13.592 27.1358 13.592H38.1998C39.8478 13.592 40.7918 13.448 41.0318 13.16C41.7198 12.712 42.0638 12.152 42.0638 11.48C42.0638 10.648 41.5598 10.016 40.5518 9.584C40.3438 9.456 39.5598 9.392 38.1998 9.392H30.7598C28.4078 9.392 26.8718 8.296 26.1518 6.104C26.0558 5.672 26.0078 5.24 26.0078 4.808V4.76C26.0078 2.776 26.9198 1.36 28.7438 0.511999C29.2718 0.303999 29.8798 0.199999 30.5678 0.199999H44.5598C44.8638 0.199999 45.1118 0.295999 45.3038 0.487999C45.5118 0.663999 45.6158 0.927999 45.6158 1.28V2.504C45.6158 2.808 45.5278 3.064 45.3518 3.272C45.1758 3.48 44.9118 3.584 44.5598 3.584H32.4878C31.0318 3.584 30.2238 3.736 30.0638 4.04C29.8398 4.216 29.7278 4.472 29.7278 4.808C29.7278 5.416 30.1758 5.792 31.0718 5.936C31.3758 5.984 31.9118 6.008 32.6798 6.008H40.1678C42.4878 6.008 44.1598 7.072 45.1838 9.2C45.4718 9.872 45.6158 10.624 45.6158 11.456V11.528C45.6158 13.624 44.7198 15.224 42.9278 16.328C42.1278 16.776 41.2398 17 40.2638 17H27.1358C26.8158 17 26.5518 16.912 26.3438 16.736C26.1518 16.544 26.0558 16.272 26.0558 15.92V14.672ZM56.5891 0.199999C57.3731 0.199999 57.9331 0.647999 58.2691 1.544C60.5731 6.184 62.3171 9.712 63.5011 12.128C64.6851 14.528 65.3171 15.832 65.3971 16.04C65.4291 16.136 65.4451 16.216 65.4451 16.28V16.4C65.3811 16.8 65.1091 17 64.6291 17H62.8531C62.0851 17 61.4851 16.416 61.0531 15.248C59.7091 12.528 58.6531 10.4 57.8851 8.864C57.1171 7.328 56.6211 6.352 56.3971 5.936C56.1251 5.6 55.9011 5.432 55.7251 5.432H55.5091C55.0771 5.432 54.5411 6.2 53.9011 7.736L49.6771 16.256C49.3251 16.752 48.8851 17 48.3571 17H46.6051C46.2211 17 45.9571 16.856 45.8131 16.568L45.7891 16.4V16.28C45.7891 16.04 46.1011 15.328 46.7251 14.144C48.5651 10.384 50.0291 7.416 51.1171 5.24C52.2051 3.048 52.9251 1.608 53.2771 0.92C53.5811 0.439999 54.0371 0.199999 54.6451 0.199999H56.5891ZM66.6016 1.28C66.6016 0.96 66.6896 0.704 66.8656 0.511999C67.0576 0.303999 67.3296 0.199999 67.6816 0.199999H69.2176C69.9216 0.199999 70.5536 0.487999 71.1136 1.064C74.3296 4.12 76.7776 6.44 78.4576 8.024C80.1376 9.608 81.0736 10.488 81.2656 10.664C81.5856 10.856 81.8496 10.96 82.0576 10.976C82.5376 10.976 82.7776 10.352 82.7776 9.104V1.28C82.7776 0.975999 82.8656 0.719999 83.0416 0.511999C83.2176 0.303999 83.4816 0.199999 83.8336 0.199999H85.0576C85.3776 0.199999 85.6336 0.295999 85.8256 0.487999C86.0336 0.663999 86.1376 0.927999 86.1376 1.28V15.92C86.1376 16.224 86.0416 16.48 85.8496 16.688C85.6736 16.896 85.4096 17 85.0576 17H83.5936C82.7776 17 82.0256 16.592 81.3376 15.776L71.4736 6.464C71.1536 6.288 70.9056 6.2 70.7296 6.2C70.2496 6.2 70.0096 6.816 70.0096 8.048V15.92C70.0096 16.224 69.9136 16.48 69.7216 16.688C69.5456 16.896 69.2816 17 68.9296 17H67.6816C67.3616 17 67.0976 16.912 66.8896 16.736C66.6976 16.544 66.6016 16.272 66.6016 15.92V1.28Z" fill="white"/>
<path d="M88.3769 17C88.0569 17 87.7929 16.912 87.5849 16.736C87.3929 16.544 87.2969 16.272 87.2969 15.92V8.36C87.2969 5.864 88.2969 3.752 90.2969 2.024C91.8169 0.807999 93.5369 0.199999 95.4569 0.199999H105.753C106.073 0.199999 106.329 0.295999 106.521 0.487999C106.729 0.663999 106.833 0.927999 106.833 1.28V2.504C106.833 2.808 106.737 3.064 106.545 3.272C106.369 3.48 106.105 3.584 105.753 3.584H97.5689C95.5689 3.584 94.3689 3.728 93.9689 4.016C92.7209 4.576 91.8009 5.448 91.2089 6.632C90.8729 7.24 90.7049 8.4 90.7049 10.112V15.92C90.7049 16.224 90.6089 16.48 90.4169 16.688C90.2409 16.896 89.9769 17 89.6249 17H88.3769ZM93.5849 7.064C93.5849 6.76 93.6729 6.512 93.8489 6.32C94.0409 6.112 94.3129 6.008 94.6649 6.008H105.753C106.057 6.008 106.313 6.096 106.521 6.272C106.729 6.448 106.833 6.712 106.833 7.064V8.312C106.833 8.616 106.737 8.872 106.545 9.08C106.369 9.288 106.105 9.392 105.753 9.392H94.6649C94.3449 9.392 94.0809 9.304 93.8729 9.128C93.6809 8.936 93.5849 8.664 93.5849 8.312V7.064ZM107.992 1.28C107.992 0.96 108.08 0.704 108.256 0.511999C108.448 0.303999 108.72 0.199999 109.072 0.199999H110.296C110.6 0.199999 110.848 0.295999 111.04 0.487999C111.248 0.663999 111.352 0.927999 111.352 1.28V15.92C111.352 16.224 111.264 16.48 111.088 16.688C110.912 16.896 110.648 17 110.296 17H109.072C108.752 17 108.488 16.912 108.28 16.736C108.088 16.544 107.992 16.272 107.992 15.92V1.28ZM112.516 1.28C112.516 0.96 112.604 0.704 112.78 0.511999C112.972 0.303999 113.244 0.199999 113.596 0.199999H115.132C115.836 0.199999 116.468 0.487999 117.028 1.064C120.244 4.12 122.692 6.44 124.372 8.024C126.052 9.608 126.988 10.488 127.18 10.664C127.5 10.856 127.764 10.96 127.972 10.976C128.452 10.976 128.692 10.352 128.692 9.104V1.28C128.692 0.975999 128.78 0.719999 128.956 0.511999C129.132 0.303999 129.396 0.199999 129.748 0.199999H130.972C131.292 0.199999 131.548 0.295999 131.74 0.487999C131.948 0.663999 132.052 0.927999 132.052 1.28V15.92C132.052 16.224 131.956 16.48 131.764 16.688C131.588 16.896 131.324 17 130.972 17H129.508C128.692 17 127.94 16.592 127.252 15.776L117.388 6.464C117.068 6.288 116.82 6.2 116.644 6.2C116.164 6.2 115.924 6.816 115.924 8.048V15.92C115.924 16.224 115.828 16.48 115.636 16.688C115.46 16.896 115.196 17 114.844 17H113.596C113.276 17 113.012 16.912 112.804 16.736C112.612 16.544 112.516 16.272 112.516 15.92V1.28Z" fill="#4782DA"/>
</svg>
