<svg width="144" height="75" viewBox="0 0 144 75" fill="none" xmlns="http://www.w3.org/2000/svg">
<path fill-rule="evenodd" clip-rule="evenodd" d="M72.4708 0L27.6708 23.5526L27.5294 17.1795L19.4974 21.8015V27.8393L5.87744 34.9995L72.4628 12.3488L139.053 35.0061L72.4708 0ZM12.4201 35.6901H19.4961L66.9001 18.4644L12.4201 35.6901Z" fill="#D5A021"/>
<path fill-rule="evenodd" clip-rule="evenodd" d="M10.1773 74.3354C10.1773 74.3169 10.164 74.2918 10.1173 74.2694C10.0263 74.2339 9.92831 74.219 9.83067 74.2258C9.28277 74.2327 8.73498 74.205 8.19067 74.1426C7.37867 74.0356 7.028 73.4123 6.85733 72.6688C6.78641 72.3578 6.73696 72.0423 6.70933 71.7246C6.51733 70.1399 6.51733 67.158 6.51733 63.537V56.8918C6.51733 51.0033 6.51733 49.9482 6.596 48.7372C6.61028 48.4079 6.64815 48.08 6.70933 47.756C6.74061 47.5912 6.7852 47.4291 6.84267 47.2713C6.85867 47.2304 6.87467 47.1921 6.892 47.1498C6.93712 47.0409 6.99201 46.9361 7.056 46.8369C7.07192 46.8096 7.08928 46.7831 7.108 46.7576C7.1866 46.6554 7.28111 46.5663 7.388 46.4935C7.52808 46.3938 7.68738 46.3236 7.856 46.2875C8.18285 46.2298 8.51481 46.2055 8.84667 46.2149C9.076 46.2149 9.26533 46.1753 9.26533 46.1013V46.0894C9.24667 46.0181 9.06133 45.9574 8.67733 45.9494H8.65867C7.516 45.9494 5.11333 46.0617 4.92533 46.0617C4.73733 46.0617 2.33333 45.9494 0.617334 45.9494H0.586666C0.169333 45.9494 0.0133333 46.0181 0 46.0894V46.1013C0 46.1753 0.150667 46.2149 0.494667 46.2149C0.851627 46.2119 1.20827 46.2366 1.56133 46.2888C1.94543 46.3329 2.30419 46.501 2.58227 46.7671C2.86034 47.0333 3.04228 47.3826 3.1 47.7613C3.17563 48.0834 3.22028 48.412 3.23333 48.7425C3.31067 49.9534 3.31067 51.0086 3.31067 56.8971V63.5423C3.31067 67.1739 3.31067 70.1452 3.12 71.7299C3.07467 72.0482 3.02933 72.3717 2.964 72.6741C2.808 73.4176 2.556 74.0409 2.01467 74.1479C1.63733 74.2112 1.25452 74.2369 0.872 74.2245C0.605334 74.2245 0.566667 74.3011 0.566667 74.3367C0.566377 74.3504 0.570588 74.3639 0.578667 74.375C0.613333 74.4212 0.737334 74.486 1.15467 74.4886H1.228C2.39333 74.4886 4.72 74.375 4.90933 74.375C5.1 74.375 7.39067 74.4846 9.24533 74.4886H9.36C9.94533 74.4886 10.1093 74.4212 10.16 74.375C10.1686 74.3652 10.1745 74.3534 10.1773 74.3407V74.3354ZM49.816 74.3354C49.8155 74.3241 49.8118 74.3131 49.8053 74.3037C49.7813 74.2681 49.7027 74.2245 49.4733 74.2245C48.9265 74.2336 48.3796 74.208 47.836 74.1479C47.0227 74.0409 46.6733 73.4176 46.5027 72.6741C46.433 72.3629 46.384 72.0475 46.356 71.7299C46.332 71.5397 46.3107 71.3232 46.292 71.0921C46.292 70.997 46.2813 70.89 46.2747 70.7883C46.2653 70.6378 46.2533 70.4925 46.2467 70.3288V70.1399C46.2373 69.9405 46.2293 69.7332 46.2227 69.5192V69.234C46.2227 69.0174 46.212 68.7969 46.2067 68.5645V68.3149C46.2067 67.9953 46.2067 67.6625 46.196 67.3165V66.2165V65.9523V64.9381V56.8918C46.196 53.5903 46.196 51.8036 46.2093 50.6652V50.652C46.2093 50.277 46.2187 49.9706 46.228 49.7012V49.4556C46.228 49.4406 46.228 49.4256 46.228 49.4107V49.2786C46.228 49.1056 46.2453 48.9326 46.2573 48.7596V48.7411C46.2729 48.412 46.3104 48.0842 46.3693 47.7599C46.4025 47.5951 46.447 47.4328 46.5027 47.274C46.5187 47.2304 46.536 47.1908 46.5533 47.1512C46.5962 47.0462 46.6489 46.9454 46.7107 46.8501C46.732 46.8184 46.7507 46.784 46.772 46.7537C46.8541 46.6481 46.9511 46.5546 47.06 46.4763C47.1967 46.3861 47.3497 46.3229 47.5107 46.2901C47.8374 46.2313 48.1694 46.2065 48.5013 46.2162C48.5557 46.2164 48.6101 46.2129 48.664 46.2056C48.6994 46.2034 48.7345 46.199 48.7693 46.1924H48.7973C48.8747 46.1739 48.9213 46.1462 48.9213 46.1079C48.9222 46.104 48.9222 46.0999 48.9213 46.096C48.9093 46.0406 48.796 45.9904 48.572 45.964C48.5 45.964 48.4187 45.9521 48.3253 45.9521H48.312C47.168 45.9521 44.7667 46.0643 44.5787 46.0643C44.3907 46.0643 41.9853 45.9521 40.2707 45.9521H40.24C39.824 45.9521 39.6693 46.0207 39.6533 46.0921V46.1039C39.6533 46.1779 39.8053 46.2175 40.148 46.2175C40.5049 46.2148 40.8616 46.2395 41.2147 46.2915C41.5984 46.3361 41.9568 46.5044 42.2346 46.7704C42.5123 47.0364 42.6941 47.3855 42.752 47.7639C42.8259 48.0864 42.8706 48.4148 42.8853 48.7451C42.96 49.9561 42.96 51.0112 42.96 56.8997V57.7317C42.9643 57.7591 42.9628 57.7871 42.9557 57.8139C42.9486 57.8407 42.936 57.8657 42.9187 57.8875C42.9081 57.8943 42.897 57.9 42.8853 57.9047C42.8483 57.9166 42.8095 57.9219 42.7707 57.9205H26.5267C26.481 57.9245 26.4351 57.9168 26.3933 57.8981C26.348 57.8743 26.3333 57.8241 26.3333 57.7251V56.8931C26.3333 53.5917 26.3333 51.8049 26.3467 50.6666V50.6534C26.3467 50.2783 26.3573 49.9719 26.3653 49.7025V49.4569V49.412V49.2799C26.3653 49.1069 26.384 48.934 26.3933 48.761C26.3942 48.7539 26.3942 48.7468 26.3933 48.7398C26.4089 48.4107 26.4464 48.0829 26.5053 47.7586C26.5393 47.594 26.5839 47.4317 26.6387 47.2727L26.6907 47.1485C26.7343 47.0441 26.7875 46.9438 26.8493 46.8488C26.8681 46.8156 26.8886 46.7834 26.9107 46.7523C26.9919 46.6459 27.089 46.5524 27.1987 46.475C27.3346 46.3829 27.4879 46.3187 27.6493 46.2862C27.976 46.2274 28.3081 46.2026 28.64 46.2122C28.7399 46.214 28.8397 46.2042 28.9373 46.1832C29.0147 46.1647 29.06 46.137 29.06 46.0987V46.0868C29.0413 46.0155 28.8533 45.9547 28.472 45.9468H28.4533C27.3093 45.9468 24.908 46.059 24.72 46.059C24.5293 46.059 22.128 45.9468 20.412 45.9468H20.4133C19.996 45.9468 19.84 46.0155 19.8267 46.0868V46.1026C19.8267 46.1739 19.9827 46.2135 20.3213 46.2135C20.6783 46.2108 21.0349 46.2355 21.388 46.2875C21.7719 46.3323 22.1303 46.5006 22.4082 46.7665C22.6862 47.0325 22.8683 47.3815 22.9267 47.7599C23.0014 48.0823 23.0461 48.4107 23.06 48.7411C23.1347 49.9521 23.1347 51.0073 23.1347 56.8958V63.5409C23.1347 67.1726 23.1347 70.1439 22.944 71.7286C22.9 72.0468 22.8533 72.3704 22.7907 72.6728C22.6333 73.4163 22.38 74.0396 21.8387 74.1466C21.4609 74.21 21.0776 74.2356 20.6947 74.2232C20.428 74.2232 20.3907 74.2997 20.3907 74.3354C20.3902 74.3494 20.395 74.363 20.404 74.3737C20.4373 74.4199 20.5613 74.4846 20.9787 74.4873H21.0533C22.2187 74.4873 24.5453 74.3737 24.7347 74.3737C24.9227 74.3737 27.2147 74.4833 29.0707 74.4873H29.1853C29.7707 74.4873 29.9347 74.4199 29.9787 74.3737C29.9839 74.3688 29.988 74.3628 29.9907 74.3562C29.9935 74.3496 29.9948 74.3425 29.9947 74.3354C29.9947 74.2997 29.96 74.2232 29.6453 74.2232C29.0971 74.2323 28.5489 74.2067 28.004 74.1466C27.192 74.0396 26.8427 73.4163 26.6707 72.6728C26.601 72.3616 26.552 72.0461 26.524 71.7286C26.5013 71.5384 26.48 71.3218 26.4613 71.0907C26.4613 70.9943 26.4493 70.8794 26.4427 70.7738C26.4427 70.6285 26.424 70.4872 26.416 70.3314V70.1293C26.4067 69.9326 26.3987 69.7332 26.3933 69.5166C26.3933 69.4215 26.3933 69.3277 26.384 69.2313C26.384 69.0148 26.3733 68.7942 26.368 68.5618V68.3122C26.368 67.9926 26.368 67.6599 26.356 67.3139V66.2138V65.9497V64.9381V59.5369C26.356 59.4458 26.3693 59.3956 26.408 59.3639C26.4387 59.3464 26.474 59.3386 26.5093 59.3415H42.7667C42.8123 59.3387 42.8579 59.3464 42.9 59.3639C42.944 59.3903 42.9573 59.4405 42.9573 59.5369V63.537C42.9573 67.1686 42.9573 70.1399 42.7667 71.7246C42.7227 72.0429 42.676 72.3664 42.6107 72.6688C42.4547 73.4123 42.2027 74.0356 41.6613 74.1426C41.2835 74.206 40.9003 74.2317 40.5173 74.2192C40.2507 74.2192 40.2133 74.2958 40.2133 74.3314C40.2122 74.3453 40.2165 74.359 40.2253 74.3697C40.26 74.416 40.3827 74.4807 40.8 74.4833H40.8747C42.0373 74.4833 44.3667 74.3697 44.556 74.3697C44.744 74.3697 47.036 74.4793 48.8907 74.4833H49.0053C49.5907 74.4833 49.7547 74.416 49.8053 74.3697C49.8102 74.3654 49.8141 74.3601 49.8168 74.3542C49.8196 74.3483 49.8211 74.3419 49.8213 74.3354H49.816ZM68.564 45.4146H68.0307C63.4573 45.5876 60.5987 48.2922 60.5987 52.2011C60.5843 54.0736 61.2647 55.8862 62.5107 57.2946C62.5227 57.3065 62.5333 57.321 62.5453 57.3342C62.9406 57.8161 63.3639 58.2747 63.8133 58.7076L63.904 58.7934C64.1227 59.0047 64.3587 59.2213 64.6027 59.4418L64.7253 59.5488C65.012 59.7997 65.308 60.0533 65.632 60.3161L67.3467 61.7119C67.724 62.0236 68.0627 62.3115 68.38 62.5954L68.572 62.7684C68.82 62.9991 69.0529 63.2192 69.2707 63.4287C69.3253 63.4855 69.3853 63.5423 69.4453 63.6017C70.1359 64.2343 70.6812 65.0064 71.0444 65.8658C71.4076 66.7252 71.5803 67.6518 71.5507 68.5829C71.5645 69.2684 71.4338 69.9492 71.1671 70.5818C70.9004 71.2144 70.5035 71.7851 70.0016 72.2572C69.4998 72.7294 68.9041 73.0928 68.2525 73.3242C67.6009 73.5556 66.9078 73.6499 66.2173 73.6012H65.868C65.6253 73.5919 65.3867 73.5668 65.1467 73.5378C65.0053 73.5219 64.8627 73.5048 64.7227 73.481C64.5627 73.4546 64.4027 73.4242 64.244 73.3899C64.1107 73.3621 63.9773 73.3304 63.844 73.2961C63.6867 73.2565 63.5387 73.2103 63.3893 73.164C63.256 73.1244 63.1347 73.0848 63.012 73.0399C62.8653 72.9858 62.7293 72.9263 62.5893 72.8669C62.4773 72.8181 62.364 72.7679 62.2573 72.7164C62.124 72.6503 62.0027 72.5764 61.8787 72.5037C61.784 72.4483 61.6853 72.3928 61.5987 72.3308C61.4852 72.2532 61.3766 72.169 61.2733 72.0785C61.2013 72.0191 61.1213 71.9623 61.0573 71.9055C60.9611 71.8094 60.872 71.7066 60.7907 71.5978C60.743 71.5427 60.6985 71.4849 60.6573 71.4248C60.5571 71.2763 60.4799 71.1139 60.428 70.9428C60.4259 70.937 60.4228 70.9316 60.4187 70.927C60.2411 70.2622 60.1638 69.5751 60.1893 68.888C60.1893 68.5869 60.1893 68.4707 60.116 68.4707C60.0013 68.4707 59.924 68.6595 59.8867 69.0755C59.7524 70.3918 59.6883 71.7143 59.6947 73.0373V73.1918C59.6851 73.3339 59.7056 73.4765 59.7547 73.6104C59.8248 73.7426 59.938 73.8473 60.076 73.9075C61.7341 74.6701 63.547 75.0447 65.3747 75.0023H65.4373C65.5827 75.0023 65.7267 75.0023 65.8707 74.9931C67.7401 74.9764 69.5656 74.4291 71.1307 73.4163C72.0113 72.7698 72.7493 71.9519 73.2993 71.0127C73.8493 70.0735 74.1996 69.0329 74.3288 67.9548C74.4581 66.8766 74.3635 65.7837 74.0508 64.7431C73.7381 63.7025 73.214 62.7362 72.5107 61.9034C72.3173 61.6644 72.1 61.4188 71.872 61.1718C71.8173 61.1111 71.76 61.053 71.6973 60.9896C71.1674 60.4382 70.6089 59.9146 70.024 59.4207L69.792 59.2213C69.46 58.9427 69.1147 58.6614 68.744 58.3563L67.6773 57.5244C67.436 57.3382 67.2053 57.1572 66.9893 56.9816L66.8147 56.835C66.6627 56.7122 66.5147 56.5881 66.3733 56.4679C66.3067 56.4124 66.24 56.3583 66.1813 56.2949C66.0587 56.1906 65.9387 56.0836 65.832 55.9806L65.6453 55.8076C65.54 55.7112 65.4413 55.6161 65.3467 55.5237C64.6742 54.9999 64.1322 54.3302 63.7623 53.5661C63.3924 52.8021 63.2046 51.9641 63.2133 51.1169C63.1861 50.5216 63.287 49.9274 63.5093 49.3738C63.7316 48.8201 64.0702 48.3195 64.5027 47.9053C64.9352 47.4911 65.4516 47.1726 66.0178 46.9711C66.584 46.7696 67.1869 46.6897 67.7867 46.7365H68.0533C69.4071 46.6882 70.7511 46.9804 71.96 47.5856C72.0013 47.612 72.0453 47.6358 72.0853 47.6583C72.1813 47.7203 72.26 47.7811 72.344 47.8405C72.3682 47.8572 72.3913 47.8753 72.4133 47.8947C72.487 47.9556 72.5573 48.0204 72.624 48.0888L72.6413 48.1059C72.69 48.1603 72.7345 48.2181 72.7747 48.2789C73.0804 48.7821 73.2507 49.3546 73.2693 49.9416C73.3093 50.4605 73.3467 50.619 73.4227 50.619C73.452 50.619 73.4893 50.586 73.5227 50.4962C73.598 50.1901 73.6272 49.8745 73.6093 49.5599C73.5318 48.4476 73.6089 47.3301 73.8387 46.2386C73.8502 46.2101 73.8537 46.179 73.849 46.1486C73.8444 46.1181 73.8316 46.0895 73.812 46.0656C73.7898 46.046 73.7638 46.031 73.7357 46.0215C73.7075 46.0119 73.6777 46.0081 73.648 46.0102C73.1081 45.9918 72.5718 45.9166 72.048 45.7857C70.909 45.5236 69.7426 45.3968 68.5733 45.408L68.564 45.4146ZM109.505 74.3354C109.505 74.2588 109.392 74.2232 109.087 74.2232C108.522 74.2437 107.957 74.18 107.411 74.0343C107.277 73.9907 107.169 73.9485 107.061 73.9023L106.977 73.8666C106.88 73.8257 106.791 73.7821 106.711 73.7345C106.701 73.7277 106.69 73.722 106.679 73.7174C106.589 73.6662 106.504 73.6083 106.424 73.5444C106.401 73.5285 106.383 73.5127 106.361 73.4955C106.294 73.4384 106.229 73.3775 106.168 73.3133C106.156 73.3014 106.141 73.2908 106.131 73.2789C106.057 73.1976 105.987 73.1126 105.923 73.0241L105.876 72.9528C105.82 72.8709 105.765 72.7798 105.712 72.6886C105.697 72.6666 105.684 72.6436 105.672 72.62C105.605 72.5064 105.539 72.3783 105.471 72.241C105.457 72.2093 105.441 72.1776 105.427 72.1446C105.367 72.0231 105.308 71.8936 105.252 71.7484C105.235 71.7101 105.219 71.6744 105.201 71.6322C105.163 71.545 105.124 71.4592 105.084 71.3588C105.06 71.3047 105.039 71.2545 105.016 71.1977C104.969 71.0868 104.92 70.9679 104.871 70.8517C104.849 70.8015 104.831 70.7553 104.811 70.7051C104.753 70.5731 104.693 70.4199 104.636 70.268C104.541 70.0382 104.443 69.7992 104.337 69.5364C102.012 63.7985 96.0267 48.2063 95.5373 46.9544C94.9667 45.5572 94.7747 45.3301 94.62 45.3301H94.6C94.448 45.3433 94.2173 45.6325 93.736 46.99L93.416 47.855L85.1213 70.3182C85.0129 70.6149 84.9053 70.8922 84.7987 71.1502C84.7653 71.236 84.7307 71.3073 84.6933 71.3905C83.9733 73.0676 83.2373 73.9749 81.996 74.132C81.6178 74.1876 81.2357 74.2132 80.8533 74.2086C80.5867 74.2086 80.476 74.243 80.4707 74.3156C80.4707 74.3552 80.5933 74.4661 81.1187 74.4661C82.1493 74.4661 85.16 74.3526 85.504 74.3526C85.9213 74.3526 87.0667 74.4661 88.472 74.4661C88.9293 74.4661 89.0427 74.3526 89.0427 74.3143C89.0427 74.3037 89.0147 74.2971 89.0053 74.2865C88.9058 74.2218 88.7862 74.1942 88.668 74.2086C88.283 74.2157 87.8986 74.1776 87.5227 74.0951C87.3867 74.0623 87.2585 74.0035 87.1453 73.9221C87.1161 73.8983 87.0885 73.8728 87.0627 73.8455C86.9967 73.7861 86.9409 73.7165 86.8973 73.6395C86.8749 73.5971 86.8562 73.5529 86.8413 73.5074C86.8081 73.4146 86.7853 73.3185 86.7733 73.2208C86.7733 73.1693 86.76 73.1244 86.756 73.069C86.7481 72.9192 86.7526 72.769 86.7693 72.62V72.5077C86.7739 72.4632 86.7819 72.419 86.7933 72.3757C86.816 72.2436 86.8427 72.101 86.8773 71.9504C86.8933 71.8818 86.9107 71.8184 86.928 71.7418C86.9667 71.5952 87.008 71.4394 87.0613 71.2769C87.08 71.2083 87.1 71.1449 87.1227 71.0656C87.1947 70.8306 87.2733 70.5849 87.364 70.3155L89.688 63.5225C89.732 63.4089 89.752 63.364 89.7747 63.3495C89.7941 63.3385 89.8166 63.3344 89.8387 63.3376H98.3947C98.4259 63.3333 98.4576 63.3374 98.4867 63.3495C98.508 63.3613 98.516 63.3891 98.5373 63.4498L102.117 72.8616C102.384 73.617 102.08 73.8428 101.891 73.9564C101.745 74.0277 101.636 74.066 101.624 74.1294C101.623 74.1329 101.623 74.1365 101.624 74.14C101.624 74.2166 101.737 74.3671 102.768 74.4041C105.396 74.5163 108.101 74.478 108.944 74.478C109.395 74.478 109.499 74.3816 109.512 74.338L109.505 74.3354ZM140.839 74.7448C140.868 74.7467 140.897 74.7422 140.924 74.7316C141.116 74.659 141.173 74.239 141.173 72.0666L141.252 50.0129V49.0594V48.8098C141.252 48.6104 141.252 48.4202 141.268 48.2512C141.268 48.1574 141.28 48.0782 141.285 47.9871C141.297 47.8458 141.309 47.7124 141.327 47.5909C141.337 47.513 141.351 47.4417 141.365 47.3743C141.384 47.2728 141.41 47.1727 141.443 47.0746C141.465 47.0125 141.484 46.9425 141.511 46.8923C141.529 46.8532 141.549 46.8153 141.572 46.7788C141.608 46.7173 141.65 46.6594 141.697 46.6058C141.723 46.5742 141.751 46.5455 141.783 46.5199C141.84 46.4751 141.902 46.437 141.968 46.4064C141.998 46.3869 142.031 46.3701 142.064 46.3562C142.18 46.3116 142.302 46.281 142.425 46.2651C142.775 46.2294 143.339 46.1924 143.683 46.1924C143.736 46.1926 143.789 46.1881 143.841 46.1792C143.96 46.1568 143.984 46.1119 143.987 46.0828V46.067C143.975 46.0221 143.887 45.9349 143.379 45.9349C142.235 45.9349 140.253 46.0472 140.061 46.0472C139.869 46.0472 138.041 45.9349 136.175 45.9349C135.447 45.9349 135.349 46.03 135.336 46.0749C135.335 46.0788 135.335 46.0829 135.336 46.0868C135.336 46.1251 135.375 46.2003 135.685 46.2003C136.233 46.1911 136.781 46.2158 137.325 46.2743C137.511 46.2958 137.693 46.3402 137.868 46.4064C137.914 46.4313 137.958 46.4587 138.001 46.4882C138.096 46.5322 138.186 46.5872 138.268 46.652C138.312 46.6962 138.353 46.7429 138.391 46.792C138.455 46.8592 138.514 46.9321 138.565 47.0099C138.599 47.0749 138.629 47.1419 138.655 47.2106C138.697 47.2988 138.733 47.3896 138.763 47.4826C138.791 47.5777 138.812 47.6834 138.835 47.789C138.848 47.8669 138.868 47.9382 138.88 48.0228C138.897 48.1416 138.909 48.2789 138.924 48.4123C138.924 48.4968 138.941 48.5748 138.947 48.6672C138.96 48.8243 138.965 48.9973 138.971 49.1703C138.969 49.2502 138.973 49.33 138.981 49.4094C138.981 49.6339 138.993 49.8742 138.995 50.1225V50.2413L139.412 69.4215C138.189 68.1749 134.039 63.5687 130.265 59.5633C124.399 53.3368 118.716 47.2555 118.143 46.6216C117.761 46.2426 117.115 45.4106 116.809 45.4106H116.745C116.491 45.4701 116.396 45.9296 116.396 47.2925C116.396 48.2433 116.396 48.9894 116.407 49.5956V50.0366V50.998V51.7468V52.2209C116.406 52.2253 116.406 52.2297 116.407 52.2341V52.9565V53.1427V53.6709V54.038V54.384V54.7353V54.9083V55.2437V55.694V57.0635V57.3949V57.8717V58.3999V59.0074V59.7456V61.5165V63.3389V69.4704V70.0805C116.407 70.1967 116.397 70.2944 116.395 70.4053C116.395 70.6404 116.383 70.8755 116.372 71.0868C116.372 71.2096 116.355 71.3165 116.349 71.4328C116.336 71.6058 116.323 71.7893 116.304 71.9517C116.293 72.0627 116.276 72.1604 116.263 72.2634C116.088 73.4414 115.729 74.0554 114.967 74.1439C114.617 74.1822 114.049 74.2205 113.709 74.2205C113.443 74.2205 113.403 74.2971 113.403 74.3328C113.403 74.3466 113.408 74.3599 113.416 74.3711C113.451 74.4199 113.579 74.4846 114.013 74.4846C115.156 74.4846 117.48 74.3711 117.68 74.3711C117.868 74.3711 119.697 74.4846 121.565 74.4846C122.175 74.4846 122.344 74.4173 122.389 74.3684C122.394 74.364 122.399 74.3585 122.401 74.3524C122.404 74.3462 122.405 74.3395 122.405 74.3328C122.405 74.2958 122.367 74.2205 122.056 74.2205C121.509 74.2296 120.962 74.204 120.419 74.1439C120.286 74.1253 120.157 74.0893 120.035 74.037L119.943 73.9907C119.846 73.9365 119.757 73.8709 119.676 73.7953C119.661 73.7812 119.646 73.768 119.629 73.7557C119.532 73.6505 119.447 73.5344 119.377 73.4097C119.356 73.3753 119.337 73.3357 119.317 73.2974C119.256 73.1762 119.203 73.0514 119.157 72.9237C119.144 72.8828 119.128 72.8471 119.113 72.8062C119.054 72.6151 119.005 72.4212 118.967 72.2251C118.955 72.1762 118.945 72.1181 118.937 72.0666C118.911 71.9201 118.888 71.7589 118.865 71.5992C118.837 71.3747 118.813 71.1317 118.792 70.8768C118.792 70.7712 118.773 70.6721 118.764 70.5585C118.74 70.1835 118.723 69.786 118.712 69.3476L118.215 51.2635C119.437 52.6223 123.743 57.3804 128.168 62.0989C132.209 66.4013 137.697 71.957 138.121 72.3294C140.141 74.3301 140.599 74.7514 140.905 74.7514L140.839 74.7448ZM90.28 61.9734C90.2627 61.9523 90.268 61.9127 90.2933 61.8414L93.6867 51.5408C93.82 51.1446 93.8853 50.9426 93.9533 50.932C93.9747 50.932 94 50.9558 94.028 50.998L94.052 51.0429C94.068 51.0759 94.0893 51.1195 94.1093 51.1671C94.1213 51.1961 94.132 51.2186 94.144 51.2503C94.1667 51.307 94.1933 51.3823 94.2213 51.4523C94.232 51.484 94.24 51.5078 94.2533 51.5408L97.92 61.8414C97.9376 61.8783 97.9484 61.9181 97.952 61.9589C97.952 61.9827 97.92 61.9932 97.844 61.9932H90.34C90.3204 61.9948 90.301 61.9891 90.2853 61.9774L90.28 61.9734ZM97.9493 61.9549H97.96L97.9493 61.9444V61.9549Z" fill="#006754"/>
</svg>
