<svg width="14" height="14" viewBox="0 0 14 14" fill="none" xmlns="http://www.w3.org/2000/svg">
<path d="M12.4981 0H5.99807C5.16965 0 4.49808 0.671572 4.49808 1.5V4.5C4.49808 4.77615 4.72193 5.00001 4.99809 5.00001C5.27424 5.00001 5.49809 4.77615 5.49809 4.5V1.5C5.49809 1.22385 5.72195 0.99999 5.9981 0.99999H12.4981C12.7743 0.99999 12.9981 1.22385 12.9981 1.5V12.5C12.9981 12.7762 12.7743 13 12.4981 13H5.99807C5.72192 13 5.49807 12.7762 5.49807 12.5V9.5C5.49807 9.22385 5.27421 8.99999 4.99806 8.99999C4.7219 8.99999 4.49805 9.22385 4.49805 9.5V12.5C4.49805 13.3284 5.16962 14 5.99805 14H12.4981C13.3265 14 13.998 13.3284 13.998 12.5V1.5C13.9981 0.671572 13.3265 0 12.4981 0Z" fill="#778192"/>
<path d="M10.0013 6.49995H1.70836L3.35488 4.85344C3.54671 4.6548 3.5412 4.33828 3.34257 4.14644C3.1488 3.95932 2.84162 3.95932 2.64788 4.14644L0.147866 6.64644C0.101431 6.6929 0.0647216 6.74813 0.0398779 6.80895C-0.0106885 6.93126 -0.0106885 7.06864 0.0398779 7.19095C0.0648388 7.25198 0.101724 7.30738 0.148364 7.35396L2.64835 9.85395C2.84019 10.0526 3.15671 10.0581 3.35534 9.86626C3.55398 9.67442 3.55948 9.3579 3.36765 9.15927C3.36364 9.15511 3.35953 9.151 3.35534 9.14696L1.70836 7.49995H10.0014C10.2775 7.49995 10.5014 7.27609 10.5014 6.99994C10.5014 6.72378 10.2775 6.49995 10.0013 6.49995Z" fill="#778192"/>
</svg>
